<?xml version="1.0" encoding="UTF-8" standalone="no"?>
<svg
   id="Layer_1"
   data-name="Layer 1"
   viewBox="0 0 310.07756 201.87208"
   version="1.1"
   sodipodi:docname="mariadb-logo-vertical_white_small.svg"
   width="16.000002"
   height="10.416599"
   inkscape:export-filename="mariadb-logo-vertical_white.svg"
   inkscape:export-xdpi="96"
   inkscape:export-ydpi="96"
   inkscape:version="1.2.2 (732a01da63, 2022-12-09)"
   xmlns:inkscape="http://www.inkscape.org/namespaces/inkscape"
   xmlns:sodipodi="http://sodipodi.sourceforge.net/DTD/sodipodi-0.dtd"
   xmlns="http://www.w3.org/2000/svg"
   xmlns:svg="http://www.w3.org/2000/svg"
   xmlns:rdf="http://www.w3.org/1999/02/22-rdf-syntax-ns#"
   xmlns:cc="http://creativecommons.org/ns#"
   xmlns:dc="http://purl.org/dc/elements/1.1/">
  <sodipodi:namedview
     id="namedview25"
     pagecolor="#898b89"
     bordercolor="#000000"
     borderopacity="0.24313725"
     inkscape:showpageshadow="2"
     inkscape:pageopacity="1"
     inkscape:pagecheckerboard="true"
     inkscape:deskcolor="#d1d1d1"
     showgrid="true"
     inkscape:zoom="9.3676539"
     inkscape:cx="16.759799"
     inkscape:cy="15.478796"
     inkscape:window-width="1920"
     inkscape:window-height="1017"
     inkscape:window-x="-8"
     inkscape:window-y="-8"
     inkscape:window-maximized="1"
     inkscape:current-layer="Layer_1">
    <inkscape:grid
       type="xygrid"
       id="grid808"
       originx="0"
       originy="1.1559489" />
  </sodipodi:namedview>
  <defs
     id="defs4">
    <style
       id="style2">.cls-1{fill:#fff;}</style>
  </defs>
  <title
     id="title6">MDB-VLogo_White</title>
  <path
     class="cls-1"
     d="m 308.68799,1.0589674 a 4.440337,4.440337 0 0 0 -3.00251,-1.05722198 c -3.00251,0 -6.87194,2.02986798 -8.94411,3.17166898 l -0.8352,0.422889 a 28.344151,28.344151 0 0 1 -11.17485,2.812212 c -3.97515,0.126866 -7.40056,0.359456 -11.86204,0.814062 -26.43058,2.727637 -38.21862,22.9840196 -49.57319,42.5743686 -6.17419,10.65681 -12.55981,21.67306 -21.31361,30.20485 a 58.897899,58.897899 0 0 1 -5.77245,4.89493 c -9.06041,6.75565 -20.43613,11.52376 -29.32736,14.92801 -8.5318,3.256254 -17.8248,6.184754 -26.82176,9.018114 -8.2252,2.5902 -16.00635,5.03238 -23.15319,7.69659 -3.22452,1.19466 -5.96274,2.11444 -8.38377,2.91793 -6.50192,2.11446 -11.206565,3.73199 -18.057364,8.45779 -2.67478,1.82899 -5.360127,3.806 -7.189124,5.28612 a 75.337719,75.337719 0 0 0 -14.314799,15.08657 89.663093,89.663093 0 0 1 -12.020627,14.47338 c -1.437824,1.41668 -4.017448,2.11445 -7.855168,2.11445 -4.514342,0 -9.969614,-0.93036 -15.763196,-1.91358 -5.793583,-0.98322 -12.115777,-2.11444 -17.401893,-2.11444 -4.302897,0 -7.5802892,0.69777 -10.0436186,2.11444 0,0 -4.12317,2.41048 -5.8781604,5.52928 l 1.7127011,0.77177 a 35.480407,35.480407 0 0 1 7.3265556,5.28612 35.607274,35.607274 0 0 0 7.6014333,5.41299 6.7345112,6.7345112 0 0 1 2.36818,1.53296 c -0.729482,1.05723 -1.786707,2.42104 -2.896791,3.88001 -6.100177,7.98204 -9.6524458,13.02499 -7.612006,15.77378 a 6.3433387,6.3433387 0 0 0 3.17167,0.7189 c 13.310438,0 20.446695,-3.45711 29.496524,-7.83402 2.611341,-1.26866 5.286115,-2.57961 8.457785,-3.91173 5.286116,-2.29416 10.973977,-5.95216 17.000148,-9.82161 7.982035,-5.12752 16.238947,-10.43478 24.231553,-13.00383 a 65.865,65.865 0 0 1 20.330397,-2.8545 c 8.45779,0 17.35961,1.13123 25.94425,2.23074 6.40677,0.82462 13.02499,1.67042 19.52691,2.11444 2.52676,0.14802 4.86323,0.22202 7.14683,0.22202 a 82.97087,82.97087 0 0 0 9.10268,-0.47575 l 0.71893,-0.25374 c 4.56719,-2.80163 6.70279,-8.81723 8.76438,-14.63195 1.33209,-3.74258 2.45275,-7.10455 4.22889,-9.24014 a 2.1778796,2.1778796 0 0 1 0.34888,-0.28544 0.42288925,0.42288925 0 0 1 0.51804,0.0845 0.26430578,0.26430578 0 0 1 0,0.16914 c -1.05722,22.74087 -10.22334,37.17197 -19.47404,50.00666 l -6.27991,6.58649 c 0,0 8.64808,0 13.57474,-1.90299 17.97278,-5.3707 31.54754,-17.2116 41.42201,-36.0936 a 152.65245,152.65245 0 0 0 6.51249,-14.89628 c 0.16915,-0.42288 1.73384,-1.20523 1.57526,0.98322 0,0.64491 -0.0845,1.36383 -0.13744,2.11445 v 0 c 0,0.44402 -0.0634,0.89864 -0.0845,1.35324 -0.2643,3.17167 -1.05722,9.87447 -1.05722,9.87447 l 5.55042,-2.97081 c 13.38445,-8.45778 23.70295,-25.52137 31.52639,-52.06823 3.26682,-11.058554 5.64557,-22.043114 7.74945,-31.716724 2.51619,-11.62942 4.6835,-21.59904 7.16797,-25.46847 3.90114,-6.068451 9.85332,-10.17047 15.61518,-14.156211 0.79292,-0.539184 1.57527,-1.057224 2.34704,-1.628124 7.25255,-5.085244 14.45225,-10.952832 16.02751,-21.895091 V 12.254878 C 310.72852,4.0931174 309.7453,2.0632494 308.68807,1.0588884 Z"
     id="path22"
     style="stroke-width:1.05722" />
  <metadata
     id="metadata1536">
    <rdf:RDF>
      <cc:Work
         rdf:about="">
        <dc:title>MDB-VLogo_White</dc:title>
      </cc:Work>
    </rdf:RDF>
  </metadata>
</svg>
